<?xml version="1.0" encoding="UTF-8"?>
<svg id="Laag_1" data-name="Laag 1" xmlns="http://www.w3.org/2000/svg" viewBox="0 0 100.5 100.5">
  <defs>
    <style>
      .cls-1 {
        fill: #304ba3;
        stroke-width: 0px;
      }
    </style>
  </defs>
  <rect class="cls-1" x="48.73" y="82.07" width="3.04" height="3.03"/>
  <rect class="cls-1" x="45.7" y="85.1" width="3.03" height="3.03"/>
  <rect class="cls-1" x="21.46" y="85.1" width="3.03" height="3.03"/>
  <rect class="cls-1" x="18.43" y="82.07" width="3.03" height="3.03"/>
  <rect class="cls-1" x="45.7" y="45.7" width="3.03" height="3.03"/>
  <rect class="cls-1" x="21.46" y="45.7" width="3.03" height="3.03"/>
  <rect class="cls-1" x="48.73" y="48.73" width="3.04" height="3.04"/>
  <rect class="cls-1" x="18.43" y="48.73" width="3.03" height="3.04"/>
  <rect class="cls-1" x="36.61" y="82.07" width="3.03" height="3.03"/>
  <rect class="cls-1" x="30.55" y="76.01" width="3.03" height="3.03"/>
  <rect class="cls-1" x="36.61" y="76.01" width="3.03" height="3.03"/>
  <rect class="cls-1" x="33.58" y="79.04" width="3.03" height="3.03"/>
  <rect class="cls-1" x="30.55" y="82.07" width="3.03" height="3.03"/>
  <rect class="cls-1" x="24.49" y="85.1" width="3.03" height="3.03"/>
  <rect class="cls-1" x="21.46" y="82.07" width="3.03" height="3.03"/>
  <rect class="cls-1" x="18.43" y="79.04" width="3.03" height="3.03"/>
  <rect class="cls-1" x="42.67" y="85.1" width="3.03" height="3.03"/>
  <rect class="cls-1" x="45.7" y="82.07" width="3.03" height="3.03"/>
  <rect class="cls-1" x="48.73" y="79.04" width="3.04" height="3.03"/>
  <rect class="cls-1" x="45.7" y="69.95" width="3.03" height="3.03"/>
  <rect class="cls-1" x="42.67" y="69.95" width="3.03" height="3.03"/>
  <rect class="cls-1" x="39.64" y="66.92" width="3.03" height="3.03"/>
  <rect class="cls-1" x="39.64" y="63.89" width="3.03" height="3.03"/>
  <rect class="cls-1" x="42.67" y="60.86" width="3.03" height="3.03"/>
  <rect class="cls-1" x="45.7" y="60.86" width="3.03" height="3.03"/>
  <rect class="cls-1" x="24.49" y="66.92" width="3.03" height="3.03"/>
  <rect class="cls-1" x="27.52" y="69.95" width="3.03" height="3.03"/>
  <rect class="cls-1" x="27.52" y="66.92" width="3.03" height="3.03"/>
  <rect class="cls-1" x="27.52" y="63.89" width="3.03" height="3.03"/>
  <rect class="cls-1" x="24.49" y="60.86" width="3.03" height="3.03"/>
  <rect class="cls-1" x="21.46" y="63.89" width="3.03" height="3.03"/>
  <rect class="cls-1" x="21.46" y="66.92" width="3.03" height="3.03"/>
  <rect class="cls-1" x="21.46" y="69.95" width="3.03" height="3.03"/>
  <rect class="cls-1" x="21.46" y="48.73" width="3.03" height="3.04"/>
  <rect class="cls-1" x="85.1" y="45.7" width="3.03" height="3.03"/>
  <rect class="cls-1" x="85.1" y="42.67" width="3.03" height="3.03"/>
  <rect class="cls-1" x="85.1" y="39.64" width="3.03" height="3.03"/>
  <rect class="cls-1" x="85.1" y="36.61" width="3.03" height="3.03"/>
  <rect class="cls-1" x="85.1" y="33.58" width="3.03" height="3.03"/>
  <rect class="cls-1" x="85.1" y="30.55" width="3.03" height="3.03"/>
  <rect class="cls-1" x="82.07" y="66.92" width="3.03" height="3.03"/>
  <rect class="cls-1" x="82.07" y="63.89" width="3.03" height="3.03"/>
  <rect class="cls-1" x="82.07" y="60.86" width="3.03" height="3.03"/>
  <rect class="cls-1" x="82.07" y="57.83" width="3.03" height="3.03"/>
  <rect class="cls-1" x="82.07" y="54.8" width="3.03" height="3.03"/>
  <rect class="cls-1" x="82.07" y="51.77" width="3.03" height="3.03"/>
  <rect class="cls-1" x="82.07" y="48.73" width="3.03" height="3.04"/>
  <rect class="cls-1" x="82.07" y="33.58" width="3.03" height="3.03"/>
  <rect class="cls-1" x="82.07" y="30.55" width="3.03" height="3.03"/>
  <rect class="cls-1" x="82.07" y="27.52" width="3.03" height="3.03"/>
  <rect class="cls-1" x="82.07" y="24.49" width="3.03" height="3.03"/>
  <rect class="cls-1" x="82.07" y="21.46" width="3.03" height="3.03"/>
  <rect class="cls-1" x="82.07" y="18.43" width="3.03" height="3.03"/>
  <rect class="cls-1" x="82.07" y="15.4" width="3.03" height="3.03"/>
  <rect class="cls-1" x="82.07" y="12.37" width="3.03" height="3.03"/>
  <rect class="cls-1" x="82.07" y="9.34" width="3.03" height="3.03"/>
  <rect class="cls-1" x="82.07" y="6.31" width="3.03" height="3.03"/>
  <rect class="cls-1" x="82.07" y="3.28" width="3.03" height="3.03"/>
  <rect class="cls-1" x="79.04" y="66.92" width="3.03" height="3.03"/>
  <rect class="cls-1" x="79.04" y="51.77" width="3.03" height="3.03"/>
  <rect class="cls-1" x="79.04" y="36.61" width="3.03" height="3.03"/>
  <rect class="cls-1" x="79.04" y="3.28" width="3.03" height="3.03"/>
  <rect class="cls-1" x="76.01" y="66.92" width="3.03" height="3.03"/>
  <rect class="cls-1" x="76.01" y="54.8" width="3.03" height="3.03"/>
  <rect class="cls-1" x="76.01" y="39.64" width="3.03" height="3.03"/>
  <rect class="cls-1" x="76.01" y="3.28" width="3.03" height="3.03"/>
  <rect class="cls-1" x="72.98" y="66.92" width="3.03" height="3.03"/>
  <rect class="cls-1" x="72.98" y="57.83" width="3.03" height="3.03"/>
  <rect class="cls-1" x="72.98" y="42.67" width="3.03" height="3.03"/>
  <rect class="cls-1" x="72.98" y="3.28" width="3.03" height="3.03"/>
  <rect class="cls-1" x="69.95" y="79.04" width="3.03" height="3.03"/>
  <rect class="cls-1" x="69.95" y="76.01" width="3.03" height="3.03"/>
  <rect class="cls-1" x="69.95" y="72.98" width="3.03" height="3.03"/>
  <rect class="cls-1" x="69.95" y="69.95" width="3.03" height="3.03"/>
  <rect class="cls-1" x="69.95" y="66.92" width="3.03" height="3.03"/>
  <rect class="cls-1" x="69.95" y="63.89" width="3.03" height="3.03"/>
  <rect class="cls-1" x="69.95" y="60.86" width="3.03" height="3.03"/>
  <rect class="cls-1" x="69.95" y="45.7" width="3.03" height="3.03"/>
  <rect class="cls-1" x="69.95" y="42.67" width="3.03" height="3.03"/>
  <rect class="cls-1" x="69.95" y="39.64" width="3.03" height="3.03"/>
  <rect class="cls-1" x="69.95" y="36.61" width="3.03" height="3.03"/>
  <rect class="cls-1" x="69.95" y="33.58" width="3.03" height="3.03"/>
  <rect class="cls-1" x="69.95" y="30.55" width="3.03" height="3.03"/>
  <rect class="cls-1" x="69.95" y="27.52" width="3.03" height="3.03"/>
  <rect class="cls-1" x="69.95" y="24.49" width="3.03" height="3.03"/>
  <rect class="cls-1" x="69.95" y="21.46" width="3.03" height="3.03"/>
  <rect class="cls-1" x="69.95" y="18.43" width="3.03" height="3.03"/>
  <rect class="cls-1" x="69.95" y="15.4" width="3.03" height="3.03"/>
  <rect class="cls-1" x="69.95" y="3.28" width="3.03" height="3.03"/>
  <rect class="cls-1" x="66.92" y="79.04" width="3.03" height="3.03"/>
  <rect class="cls-1" x="66.92" y="63.89" width="3.03" height="3.03"/>
  <rect class="cls-1" x="66.92" y="48.73" width="3.03" height="3.04"/>
  <rect class="cls-1" x="66.92" y="15.4" width="3.03" height="3.03"/>
  <rect class="cls-1" x="66.92" y="3.28" width="3.03" height="3.03"/>
  <rect class="cls-1" x="63.89" y="79.04" width="3.03" height="3.03"/>
  <rect class="cls-1" x="63.89" y="66.92" width="3.03" height="3.03"/>
  <rect class="cls-1" x="63.89" y="51.77" width="3.03" height="3.03"/>
  <rect class="cls-1" x="63.89" y="15.4" width="3.03" height="3.03"/>
  <rect class="cls-1" x="63.89" y="3.28" width="3.03" height="3.03"/>
  <rect class="cls-1" x="60.86" y="79.04" width="3.03" height="3.03"/>
  <rect class="cls-1" x="60.86" y="69.95" width="3.03" height="3.03"/>
  <rect class="cls-1" x="60.86" y="54.8" width="3.03" height="3.03"/>
  <rect class="cls-1" x="60.86" y="15.4" width="3.03" height="3.03"/>
  <rect class="cls-1" x="60.86" y="3.28" width="3.03" height="3.03"/>
  <rect class="cls-1" x="57.83" y="91.16" width="3.03" height="3.03"/>
  <rect class="cls-1" x="57.83" y="88.13" width="3.03" height="3.03"/>
  <rect class="cls-1" x="57.83" y="85.1" width="3.03" height="3.03"/>
  <rect class="cls-1" x="57.83" y="82.07" width="3.03" height="3.03"/>
  <rect class="cls-1" x="57.83" y="79.04" width="3.03" height="3.03"/>
  <rect class="cls-1" x="57.83" y="76.01" width="3.03" height="3.03"/>
  <rect class="cls-1" x="57.83" y="72.98" width="3.03" height="3.03"/>
  <rect class="cls-1" x="57.83" y="57.83" width="3.03" height="3.03"/>
  <rect class="cls-1" x="57.83" y="54.8" width="3.03" height="3.03"/>
  <rect class="cls-1" x="57.83" y="51.77" width="3.03" height="3.03"/>
  <rect class="cls-1" x="57.83" y="48.73" width="3.03" height="3.04"/>
  <rect class="cls-1" x="57.83" y="45.7" width="3.03" height="3.03"/>
  <rect class="cls-1" x="57.83" y="42.67" width="3.03" height="3.03"/>
  <rect class="cls-1" x="57.83" y="39.64" width="3.03" height="3.03"/>
  <rect class="cls-1" x="57.83" y="36.61" width="3.03" height="3.03"/>
  <rect class="cls-1" x="57.83" y="15.4" width="3.03" height="3.03"/>
  <rect class="cls-1" x="57.83" y="3.28" width="3.03" height="3.03"/>
  <rect class="cls-1" x="54.8" y="91.16" width="3.03" height="3.03"/>
  <rect class="cls-1" x="54.8" y="72.98" width="3.03" height="3.03"/>
  <rect class="cls-1" x="54.8" y="57.83" width="3.03" height="3.03"/>
  <rect class="cls-1" x="54.8" y="39.64" width="3.03" height="3.03"/>
  <rect class="cls-1" x="54.8" y="33.58" width="3.03" height="3.03"/>
  <rect class="cls-1" x="54.8" y="15.4" width="3.03" height="3.03"/>
  <rect class="cls-1" x="54.8" y="3.28" width="3.03" height="3.03"/>
  <rect class="cls-1" x="51.77" y="91.16" width="3.03" height="3.03"/>
  <rect class="cls-1" x="51.77" y="72.98" width="3.03" height="3.03"/>
  <rect class="cls-1" x="51.77" y="57.83" width="3.03" height="3.03"/>
  <rect class="cls-1" x="51.77" y="39.64" width="3.03" height="3.03"/>
  <rect class="cls-1" x="51.77" y="30.55" width="3.03" height="3.03"/>
  <rect class="cls-1" x="51.77" y="15.4" width="3.03" height="3.03"/>
  <rect class="cls-1" x="51.77" y="3.28" width="3.03" height="3.03"/>
  <rect class="cls-1" x="48.73" y="91.16" width="3.04" height="3.03"/>
  <rect class="cls-1" x="48.73" y="76.01" width="3.04" height="3.03"/>
  <rect class="cls-1" x="48.73" y="72.98" width="3.04" height="3.03"/>
  <rect class="cls-1" x="48.73" y="57.83" width="3.04" height="3.03"/>
  <rect class="cls-1" x="48.73" y="54.8" width="3.04" height="3.03"/>
  <rect class="cls-1" x="48.73" y="51.77" width="3.04" height="3.03"/>
  <rect class="cls-1" x="48.73" y="39.64" width="3.04" height="3.03"/>
  <rect class="cls-1" x="48.73" y="27.52" width="3.04" height="3.03"/>
  <rect class="cls-1" x="48.73" y="15.4" width="3.04" height="3.03"/>
  <rect class="cls-1" x="48.73" y="3.28" width="3.04" height="3.03"/>
  <rect class="cls-1" x="45.7" y="91.16" width="3.03" height="3.03"/>
  <rect class="cls-1" x="45.7" y="72.98" width="3.03" height="3.03"/>
  <rect class="cls-1" x="45.7" y="57.83" width="3.03" height="3.03"/>
  <rect class="cls-1" x="45.7" y="48.73" width="3.03" height="3.04"/>
  <rect class="cls-1" x="45.7" y="39.64" width="3.03" height="3.03"/>
  <rect class="cls-1" x="45.7" y="36.61" width="3.03" height="3.03"/>
  <rect class="cls-1" x="45.7" y="33.58" width="3.03" height="3.03"/>
  <rect class="cls-1" x="45.7" y="30.55" width="3.03" height="3.03"/>
  <rect class="cls-1" x="45.7" y="27.52" width="3.03" height="3.03"/>
  <rect class="cls-1" x="45.7" y="15.4" width="3.03" height="3.03"/>
  <rect class="cls-1" x="45.7" y="3.28" width="3.03" height="3.03"/>
  <rect class="cls-1" x="42.67" y="91.16" width="3.03" height="3.03"/>
  <rect class="cls-1" x="42.67" y="72.98" width="3.03" height="3.03"/>
  <rect class="cls-1" x="42.67" y="57.83" width="3.03" height="3.03"/>
  <rect class="cls-1" x="42.67" y="45.7" width="3.03" height="3.03"/>
  <rect class="cls-1" x="42.67" y="27.52" width="3.03" height="3.03"/>
  <rect class="cls-1" x="42.67" y="15.4" width="3.03" height="3.03"/>
  <rect class="cls-1" x="42.67" y="3.28" width="3.03" height="3.03"/>
  <rect class="cls-1" x="39.64" y="91.16" width="3.03" height="3.03"/>
  <rect class="cls-1" x="39.64" y="72.98" width="3.03" height="3.03"/>
  <rect class="cls-1" x="39.64" y="57.83" width="3.03" height="3.03"/>
  <rect class="cls-1" x="39.64" y="27.52" width="3.03" height="3.03"/>
  <rect class="cls-1" x="39.64" y="15.4" width="3.03" height="3.03"/>
  <rect class="cls-1" x="39.64" y="3.28" width="3.03" height="3.03"/>
  <rect class="cls-1" x="36.61" y="91.16" width="3.03" height="3.03"/>
  <rect class="cls-1" x="36.61" y="72.98" width="3.03" height="3.03"/>
  <rect class="cls-1" x="36.61" y="57.83" width="3.03" height="3.03"/>
  <rect class="cls-1" x="36.61" y="54.8" width="3.03" height="3.03"/>
  <rect class="cls-1" x="36.61" y="48.73" width="3.03" height="3.04"/>
  <rect class="cls-1" x="36.61" y="27.52" width="3.03" height="3.03"/>
  <rect class="cls-1" x="36.61" y="15.4" width="3.03" height="3.03"/>
  <rect class="cls-1" x="36.61" y="12.37" width="3.03" height="3.03"/>
  <rect class="cls-1" x="36.61" y="9.34" width="3.03" height="3.03"/>
  <rect class="cls-1" x="36.61" y="6.31" width="3.03" height="3.03"/>
  <rect class="cls-1" x="36.61" y="3.28" width="3.03" height="3.03"/>
  <rect class="cls-1" x="33.58" y="91.16" width="3.03" height="3.03"/>
  <rect class="cls-1" x="33.58" y="72.98" width="3.03" height="3.03"/>
  <rect class="cls-1" x="33.58" y="57.83" width="3.03" height="3.03"/>
  <rect class="cls-1" x="33.58" y="51.77" width="3.03" height="3.03"/>
  <rect class="cls-1" x="33.58" y="27.52" width="3.03" height="3.03"/>
  <rect class="cls-1" x="33.58" y="15.4" width="3.03" height="3.03"/>
  <rect class="cls-1" x="30.55" y="91.16" width="3.03" height="3.03"/>
  <rect class="cls-1" x="30.55" y="72.98" width="3.03" height="3.03"/>
  <rect class="cls-1" x="30.55" y="57.83" width="3.03" height="3.03"/>
  <rect class="cls-1" x="30.55" y="54.8" width="3.03" height="3.03"/>
  <rect class="cls-1" x="30.55" y="48.73" width="3.03" height="3.04"/>
  <rect class="cls-1" x="30.55" y="27.52" width="3.03" height="3.03"/>
  <rect class="cls-1" x="30.55" y="15.4" width="3.03" height="3.03"/>
  <rect class="cls-1" x="27.52" y="91.16" width="3.03" height="3.03"/>
  <rect class="cls-1" x="27.52" y="72.98" width="3.03" height="3.03"/>
  <rect class="cls-1" x="27.52" y="57.83" width="3.03" height="3.03"/>
  <rect class="cls-1" x="27.52" y="27.52" width="3.03" height="3.03"/>
  <rect class="cls-1" x="27.52" y="15.4" width="3.03" height="3.03"/>
  <rect class="cls-1" x="24.49" y="91.16" width="3.03" height="3.03"/>
  <rect class="cls-1" x="24.49" y="72.98" width="3.03" height="3.03"/>
  <rect class="cls-1" x="24.49" y="57.83" width="3.03" height="3.03"/>
  <rect class="cls-1" x="24.49" y="45.7" width="3.03" height="3.03"/>
  <rect class="cls-1" x="24.49" y="27.52" width="3.03" height="3.03"/>
  <rect class="cls-1" x="24.49" y="24.49" width="3.03" height="3.03"/>
  <rect class="cls-1" x="24.49" y="21.46" width="3.03" height="3.03"/>
  <rect class="cls-1" x="24.49" y="18.43" width="3.03" height="3.03"/>
  <rect class="cls-1" x="24.49" y="15.4" width="3.03" height="3.03"/>
  <rect class="cls-1" x="21.46" y="91.16" width="3.03" height="3.03"/>
  <rect class="cls-1" x="21.46" y="72.98" width="3.03" height="3.03"/>
  <rect class="cls-1" x="21.46" y="57.83" width="3.03" height="3.03"/>
  <rect class="cls-1" x="21.46" y="27.52" width="3.03" height="3.03"/>
  <rect class="cls-1" x="18.43" y="91.16" width="3.03" height="3.03"/>
  <rect class="cls-1" x="18.43" y="76.01" width="3.03" height="3.03"/>
  <rect class="cls-1" x="18.43" y="72.98" width="3.03" height="3.03"/>
  <rect class="cls-1" x="18.43" y="57.83" width="3.03" height="3.03"/>
  <rect class="cls-1" x="18.43" y="54.8" width="3.03" height="3.03"/>
  <rect class="cls-1" x="18.43" y="51.77" width="3.03" height="3.03"/>
  <rect class="cls-1" x="18.43" y="27.52" width="3.03" height="3.03"/>
  <rect class="cls-1" x="15.4" y="91.16" width="3.03" height="3.03"/>
  <rect class="cls-1" x="15.4" y="72.98" width="3.03" height="3.03"/>
  <rect class="cls-1" x="15.4" y="57.83" width="3.03" height="3.03"/>
  <rect class="cls-1" x="15.4" y="27.52" width="3.03" height="3.03"/>
  <rect class="cls-1" x="12.37" y="91.16" width="3.03" height="3.03"/>
  <rect class="cls-1" x="12.37" y="88.13" width="3.03" height="3.03"/>
  <rect class="cls-1" x="12.37" y="85.1" width="3.03" height="3.03"/>
  <rect class="cls-1" x="12.37" y="82.07" width="3.03" height="3.03"/>
  <rect class="cls-1" x="12.37" y="79.04" width="3.03" height="3.03"/>
  <rect class="cls-1" x="12.37" y="76.01" width="3.03" height="3.03"/>
  <rect class="cls-1" x="12.37" y="72.98" width="3.03" height="3.03"/>
  <rect class="cls-1" x="12.37" y="57.83" width="3.03" height="3.03"/>
  <rect class="cls-1" x="12.37" y="54.8" width="3.03" height="3.03"/>
  <rect class="cls-1" x="12.37" y="51.77" width="3.03" height="3.03"/>
  <rect class="cls-1" x="12.37" y="48.73" width="3.03" height="3.04"/>
  <rect class="cls-1" x="12.37" y="45.7" width="3.03" height="3.03"/>
  <rect class="cls-1" x="12.37" y="42.67" width="3.03" height="3.03"/>
  <rect class="cls-1" x="12.37" y="39.64" width="3.03" height="3.03"/>
  <rect class="cls-1" x="12.37" y="36.61" width="3.03" height="3.03"/>
  <rect class="cls-1" x="12.37" y="33.58" width="3.03" height="3.03"/>
  <rect class="cls-1" x="12.37" y="30.55" width="3.03" height="3.03"/>
  <rect class="cls-1" x="12.37" y="27.52" width="3.03" height="3.03"/>
  <rect class="cls-1" x="9.34" y="72.98" width="3.03" height="3.03"/>
  <rect class="cls-1" x="9.34" y="69.95" width="3.03" height="3.03"/>
  <rect class="cls-1" x="9.34" y="66.92" width="3.03" height="3.03"/>
  <rect class="cls-1" x="9.34" y="63.89" width="3.03" height="3.03"/>
  <rect class="cls-1" x="9.34" y="60.86" width="3.03" height="3.03"/>
  <rect class="cls-1" x="9.34" y="57.83" width="3.03" height="3.03"/>
</svg>